solid OpenSCAD_Model
  facet normal 0 0 1
    outer loop
      vertex -29.5 -117.518 30
      vertex -29.5 -164.034 30
      vertex -17.5085 -166.582 30
    endloop
  endfacet
  facet normal 0 0 1
    outer loop
      vertex 51.7603 -159.302 30
      vertex -29.5 -117.518 30
      vertex 17.5085 -166.582 30
    endloop
  endfacet
  facet normal 0 0 1
    outer loop
      vertex 17.5085 -166.582 30
      vertex -29.5 -117.518 30
      vertex -17.5085 -166.582 30
    endloop
  endfacet
  facet normal 0 0 1
    outer loop
      vertex 83.75 -145.059 30
      vertex -29.5 -117.518 30
      vertex 51.7603 -159.302 30
    endloop
  endfacet
  facet normal 0 0 1
    outer loop
      vertex -12.7263 -121.083 30
      vertex -29.5 -117.518 30
      vertex 83.75 -145.059 30
    endloop
  endfacet
  facet normal 0 0 1
    outer loop
      vertex 37.6228 -115.791 30
      vertex 12.7263 -121.083 30
      vertex 112.079 -124.477 30
    endloop
  endfacet
  facet normal 0 0 1
    outer loop
      vertex 60.875 -105.439 30
      vertex 37.6228 -115.791 30
      vertex 135.51 -98.454 30
    endloop
  endfacet
  facet normal 0 0 1
    outer loop
      vertex 98.4978 -71.5629 30
      vertex 81.4667 -90.4779 30
      vertex 153.019 -68.1284 30
    endloop
  endfacet
  facet normal 0 0 1
    outer loop
      vertex 111.224 -49.5202 30
      vertex 98.4978 -71.5629 30
      vertex 163.84 -34.8252 30
    endloop
  endfacet
  facet normal 0 0 1
    outer loop
      vertex 119.089 -25.3132 30
      vertex 111.224 -49.5202 30
      vertex 167.5 0 30
    endloop
  endfacet
  facet normal 0 0 1
    outer loop
      vertex 119.089 25.3132 30
      vertex 121.75 0 30
      vertex 163.84 34.8252 30
    endloop
  endfacet
  facet normal 0 0 1
    outer loop
      vertex 111.224 49.5202 30
      vertex 119.089 25.3132 30
      vertex 153.019 68.1284 30
    endloop
  endfacet
  facet normal 0 0 1
    outer loop
      vertex 98.4978 71.5629 30
      vertex 111.224 49.5202 30
      vertex 135.51 98.454 30
    endloop
  endfacet
  facet normal 0 0 1
    outer loop
      vertex 81.4667 90.4779 30
      vertex 98.4978 71.5629 30
      vertex 112.079 124.477 30
    endloop
  endfacet
  facet normal 0 0 1
    outer loop
      vertex 60.875 105.439 30
      vertex 81.4667 90.4779 30
      vertex 83.75 145.059 30
    endloop
  endfacet
  facet normal 0 0 1
    outer loop
      vertex 37.6228 115.791 30
      vertex 60.875 105.439 30
      vertex 51.7603 159.302 30
    endloop
  endfacet
  facet normal 0 0 1
    outer loop
      vertex -12.7263 121.083 30
      vertex 12.7263 121.083 30
      vertex 17.5085 166.582 30
    endloop
  endfacet
  facet normal 0 0 1
    outer loop
      vertex -29.5 164.034 30
      vertex -29.5 117.518 30
      vertex -17.5085 166.582 30
    endloop
  endfacet
  facet normal 0 0 1
    outer loop
      vertex -17.5085 166.582 30
      vertex -12.7263 121.083 30
      vertex 17.5085 166.582 30
    endloop
  endfacet
  facet normal 0 0 1
    outer loop
      vertex 17.5085 166.582 30
      vertex 12.7263 121.083 30
      vertex 51.7603 159.302 30
    endloop
  endfacet
  facet normal 0 0 1
    outer loop
      vertex 12.7263 121.083 30
      vertex 37.6228 115.791 30
      vertex 51.7603 159.302 30
    endloop
  endfacet
  facet normal 0 0 1
    outer loop
      vertex 51.7603 159.302 30
      vertex 60.875 105.439 30
      vertex 83.75 145.059 30
    endloop
  endfacet
  facet normal 0 0 1
    outer loop
      vertex 83.75 145.059 30
      vertex 81.4667 90.4779 30
      vertex 112.079 124.477 30
    endloop
  endfacet
  facet normal 0 0 1
    outer loop
      vertex 112.079 124.477 30
      vertex 98.4978 71.5629 30
      vertex 135.51 98.454 30
    endloop
  endfacet
  facet normal 0 0 1
    outer loop
      vertex 135.51 98.454 30
      vertex 111.224 49.5202 30
      vertex 153.019 68.1284 30
    endloop
  endfacet
  facet normal 0 0 1
    outer loop
      vertex 153.019 68.1284 30
      vertex 119.089 25.3132 30
      vertex 163.84 34.8252 30
    endloop
  endfacet
  facet normal 0 0 1
    outer loop
      vertex 163.84 34.8252 30
      vertex 121.75 0 30
      vertex 167.5 0 30
    endloop
  endfacet
  facet normal 0 0 1
    outer loop
      vertex 121.75 0 30
      vertex 119.089 -25.3132 30
      vertex 167.5 0 30
    endloop
  endfacet
  facet normal 0 0 1
    outer loop
      vertex 167.5 0 30
      vertex 111.224 -49.5202 30
      vertex 163.84 -34.8252 30
    endloop
  endfacet
  facet normal 0 0 1
    outer loop
      vertex 163.84 -34.8252 30
      vertex 98.4978 -71.5629 30
      vertex 153.019 -68.1284 30
    endloop
  endfacet
  facet normal 0 0 1
    outer loop
      vertex 153.019 -68.1284 30
      vertex 81.4667 -90.4779 30
      vertex 135.51 -98.454 30
    endloop
  endfacet
  facet normal 0 0 1
    outer loop
      vertex 81.4667 -90.4779 30
      vertex 60.875 -105.439 30
      vertex 135.51 -98.454 30
    endloop
  endfacet
  facet normal 0 0 1
    outer loop
      vertex 135.51 -98.454 30
      vertex 37.6228 -115.791 30
      vertex 112.079 -124.477 30
    endloop
  endfacet
  facet normal 0 0 1
    outer loop
      vertex 112.079 -124.477 30
      vertex 12.7263 -121.083 30
      vertex 83.75 -145.059 30
    endloop
  endfacet
  facet normal 0 0 1
    outer loop
      vertex 12.7263 -121.083 30
      vertex -12.7263 -121.083 30
      vertex 83.75 -145.059 30
    endloop
  endfacet
  facet normal 0 0 1
    outer loop
      vertex -29.5 117.518 30
      vertex -12.7263 121.083 30
      vertex -17.5085 166.582 30
    endloop
  endfacet
  facet normal -0.165665 -0.779393 -0.604236
    outer loop
      vertex -17.5085 -166.582 30
      vertex -29.5 -164.034 30
      vertex -29.5 -137.506 -4.21685
    endloop
  endfacet
  facet normal -0.165665 -0.779393 -0.604236
    outer loop
      vertex -12.7263 -121.083 -30
      vertex -17.5085 -166.582 30
      vertex -29.5 -137.506 -4.21685
    endloop
  endfacet
  facet normal -1 0 0
    outer loop
      vertex -29.5 -117.518 -30
      vertex -29.5 -137.506 -4.21685
      vertex -29.5 -117.518 30
    endloop
  endfacet
  facet normal -1 0 0
    outer loop
      vertex -29.5 -117.518 30
      vertex -29.5 -137.506 -4.21685
      vertex -29.5 -164.034 30
    endloop
  endfacet
  facet normal 0.207912 0.978148 0
    outer loop
      vertex -12.7263 -121.083 30
      vertex -12.7263 -121.083 -30
      vertex -29.5 -117.518 30
    endloop
  endfacet
  facet normal 0.207912 0.978148 0
    outer loop
      vertex -29.5 -117.518 30
      vertex -12.7263 -121.083 -30
      vertex -29.5 -117.518 -30
    endloop
  endfacet
  facet normal 0 1 0
    outer loop
      vertex 12.7263 -121.083 30
      vertex 12.7263 -121.083 -30
      vertex -12.7263 -121.083 30
    endloop
  endfacet
  facet normal 0 1 0
    outer loop
      vertex -12.7263 -121.083 30
      vertex 12.7263 -121.083 -30
      vertex -12.7263 -121.083 -30
    endloop
  endfacet
  facet normal -0.207912 0.978148 0
    outer loop
      vertex 37.6228 -115.791 30
      vertex 37.6228 -115.791 -30
      vertex 12.7263 -121.083 30
    endloop
  endfacet
  facet normal -0.207912 0.978148 0
    outer loop
      vertex 12.7263 -121.083 30
      vertex 37.6228 -115.791 -30
      vertex 12.7263 -121.083 -30
    endloop
  endfacet
  facet normal -0.406737 0.913545 0
    outer loop
      vertex 60.875 -105.439 30
      vertex 60.875 -105.439 -30
      vertex 37.6228 -115.791 30
    endloop
  endfacet
  facet normal -0.406737 0.913545 0
    outer loop
      vertex 37.6228 -115.791 30
      vertex 60.875 -105.439 -30
      vertex 37.6228 -115.791 -30
    endloop
  endfacet
  facet normal -0.587785 0.809017 0
    outer loop
      vertex 81.4667 -90.4779 30
      vertex 81.4667 -90.4779 -30
      vertex 60.875 -105.439 30
    endloop
  endfacet
  facet normal -0.587785 0.809017 0
    outer loop
      vertex 60.875 -105.439 30
      vertex 81.4667 -90.4779 -30
      vertex 60.875 -105.439 -30
    endloop
  endfacet
  facet normal -0.743145 0.669131 0
    outer loop
      vertex 98.4978 -71.5629 30
      vertex 98.4978 -71.5629 -30
      vertex 81.4667 -90.4779 30
    endloop
  endfacet
  facet normal -0.743145 0.669131 0
    outer loop
      vertex 81.4667 -90.4779 30
      vertex 98.4978 -71.5629 -30
      vertex 81.4667 -90.4779 -30
    endloop
  endfacet
  facet normal -0.866025 0.5 0
    outer loop
      vertex 111.224 -49.5202 30
      vertex 111.224 -49.5202 -30
      vertex 98.4978 -71.5629 30
    endloop
  endfacet
  facet normal -0.866025 0.5 0
    outer loop
      vertex 98.4978 -71.5629 30
      vertex 111.224 -49.5202 -30
      vertex 98.4978 -71.5629 -30
    endloop
  endfacet
  facet normal -0.951057 0.309017 0
    outer loop
      vertex 119.089 -25.3132 30
      vertex 119.089 -25.3132 -30
      vertex 111.224 -49.5202 30
    endloop
  endfacet
  facet normal -0.951057 0.309017 0
    outer loop
      vertex 111.224 -49.5202 30
      vertex 119.089 -25.3132 -30
      vertex 111.224 -49.5202 -30
    endloop
  endfacet
  facet normal -0.994522 0.104528 0
    outer loop
      vertex 121.75 0 30
      vertex 121.75 0 -30
      vertex 119.089 -25.3132 30
    endloop
  endfacet
  facet normal -0.994522 0.104528 0
    outer loop
      vertex 119.089 -25.3132 30
      vertex 121.75 0 -30
      vertex 119.089 -25.3132 -30
    endloop
  endfacet
  facet normal -0.994522 -0.104528 0
    outer loop
      vertex 121.75 0 30
      vertex 119.089 25.3132 30
      vertex 121.75 0 -30
    endloop
  endfacet
  facet normal -0.994522 -0.104528 0
    outer loop
      vertex 121.75 0 -30
      vertex 119.089 25.3132 30
      vertex 119.089 25.3132 -30
    endloop
  endfacet
  facet normal -0.951057 -0.309017 0
    outer loop
      vertex 119.089 25.3132 30
      vertex 111.224 49.5202 30
      vertex 119.089 25.3132 -30
    endloop
  endfacet
  facet normal -0.951057 -0.309017 0
    outer loop
      vertex 119.089 25.3132 -30
      vertex 111.224 49.5202 30
      vertex 111.224 49.5202 -30
    endloop
  endfacet
  facet normal -0.866025 -0.5 0
    outer loop
      vertex 111.224 49.5202 30
      vertex 98.4978 71.5629 30
      vertex 111.224 49.5202 -30
    endloop
  endfacet
  facet normal -0.866025 -0.5 0
    outer loop
      vertex 111.224 49.5202 -30
      vertex 98.4978 71.5629 30
      vertex 98.4978 71.5629 -30
    endloop
  endfacet
  facet normal -0.743145 -0.669131 0
    outer loop
      vertex 98.4978 71.5629 30
      vertex 81.4667 90.4779 30
      vertex 98.4978 71.5629 -30
    endloop
  endfacet
  facet normal -0.743145 -0.669131 0
    outer loop
      vertex 98.4978 71.5629 -30
      vertex 81.4667 90.4779 30
      vertex 81.4667 90.4779 -30
    endloop
  endfacet
  facet normal -0.587785 -0.809017 0
    outer loop
      vertex 81.4667 90.4779 -30
      vertex 81.4667 90.4779 30
      vertex 60.875 105.439 30
    endloop
  endfacet
  facet normal -0.587785 -0.809017 0
    outer loop
      vertex 60.875 105.439 -30
      vertex 81.4667 90.4779 -30
      vertex 60.875 105.439 30
    endloop
  endfacet
  facet normal -0.406737 -0.913545 0
    outer loop
      vertex 60.875 105.439 -30
      vertex 60.875 105.439 30
      vertex 37.6228 115.791 30
    endloop
  endfacet
  facet normal -0.406737 -0.913545 0
    outer loop
      vertex 37.6228 115.791 -30
      vertex 60.875 105.439 -30
      vertex 37.6228 115.791 30
    endloop
  endfacet
  facet normal -0.207912 -0.978148 0
    outer loop
      vertex 37.6228 115.791 -30
      vertex 37.6228 115.791 30
      vertex 12.7263 121.083 30
    endloop
  endfacet
  facet normal -0.207912 -0.978148 0
    outer loop
      vertex 12.7263 121.083 -30
      vertex 37.6228 115.791 -30
      vertex 12.7263 121.083 30
    endloop
  endfacet
  facet normal 0 -1 0
    outer loop
      vertex 12.7263 121.083 -30
      vertex 12.7263 121.083 30
      vertex -12.7263 121.083 30
    endloop
  endfacet
  facet normal 0 -1 0
    outer loop
      vertex -12.7263 121.083 -30
      vertex 12.7263 121.083 -30
      vertex -12.7263 121.083 30
    endloop
  endfacet
  facet normal 0.207912 -0.978148 0
    outer loop
      vertex -12.7263 121.083 -30
      vertex -12.7263 121.083 30
      vertex -29.5 117.518 30
    endloop
  endfacet
  facet normal 0.207912 -0.978148 0
    outer loop
      vertex -29.5 117.518 -30
      vertex -12.7263 121.083 -30
      vertex -29.5 117.518 30
    endloop
  endfacet
  facet normal -1 0 0
    outer loop
      vertex -29.5 164.034 30
      vertex -29.5 136.302 -5.77002
      vertex -29.5 117.518 30
    endloop
  endfacet
  facet normal -1 0 0
    outer loop
      vertex -29.5 117.518 30
      vertex -29.5 136.302 -5.77002
      vertex -29.5 117.518 -30
    endloop
  endfacet
  facet normal -0.165665 0.779393 -0.604236
    outer loop
      vertex -17.5085 166.582 30
      vertex -29.5 136.302 -5.77002
      vertex -29.5 164.034 30
    endloop
  endfacet
  facet normal -0.165665 0.779393 -0.604236
    outer loop
      vertex -29.5 117.518 -30
      vertex -29.5 136.302 -5.77002
      vertex -12.7263 121.083 -30
    endloop
  endfacet
  facet normal -0.165665 0.779393 -0.604236
    outer loop
      vertex -12.7263 121.083 -30
      vertex -29.5 136.302 -5.77002
      vertex -17.5085 166.582 30
    endloop
  endfacet
  facet normal 0 0.796805 -0.604236
    outer loop
      vertex -17.5085 166.582 30
      vertex 17.5085 166.582 30
      vertex -12.7263 121.083 -30
    endloop
  endfacet
  facet normal 0 0.796805 -0.604236
    outer loop
      vertex -12.7263 121.083 -30
      vertex 17.5085 166.582 30
      vertex 12.7263 121.083 -30
    endloop
  endfacet
  facet normal 0.165665 0.779393 -0.604236
    outer loop
      vertex 51.7603 159.302 30
      vertex 12.7263 121.083 -30
      vertex 17.5085 166.582 30
    endloop
  endfacet
  facet normal 0.165665 0.779393 -0.604236
    outer loop
      vertex 37.6228 115.791 -30
      vertex 12.7263 121.083 -30
      vertex 51.7603 159.302 30
    endloop
  endfacet
  facet normal 0.32409 0.727918 -0.604236
    outer loop
      vertex 83.75 145.059 30
      vertex 37.6228 115.791 -30
      vertex 51.7603 159.302 30
    endloop
  endfacet
  facet normal 0.32409 0.727918 -0.604236
    outer loop
      vertex 60.875 105.439 -30
      vertex 37.6228 115.791 -30
      vertex 83.75 145.059 30
    endloop
  endfacet
  facet normal 0.468351 0.644629 -0.604236
    outer loop
      vertex 112.079 124.477 30
      vertex 60.875 105.439 -30
      vertex 83.75 145.059 30
    endloop
  endfacet
  facet normal 0.468351 0.644629 -0.604236
    outer loop
      vertex 81.4667 90.4779 -30
      vertex 60.875 105.439 -30
      vertex 112.079 124.477 30
    endloop
  endfacet
  facet normal 0.592142 0.533167 -0.604236
    outer loop
      vertex 135.51 98.454 30
      vertex 81.4667 90.4779 -30
      vertex 112.079 124.477 30
    endloop
  endfacet
  facet normal 0.592142 0.533167 -0.604236
    outer loop
      vertex 98.4978 71.5629 -30
      vertex 81.4667 90.4779 -30
      vertex 135.51 98.454 30
    endloop
  endfacet
  facet normal 0.690054 0.398403 -0.604236
    outer loop
      vertex 153.019 68.1284 30
      vertex 98.4978 71.5629 -30
      vertex 135.51 98.454 30
    endloop
  endfacet
  facet normal 0.690054 0.398403 -0.604236
    outer loop
      vertex 111.224 49.5202 -30
      vertex 98.4978 71.5629 -30
      vertex 153.019 68.1284 30
    endloop
  endfacet
  facet normal 0.757807 0.246226 -0.604236
    outer loop
      vertex 163.84 34.8252 30
      vertex 111.224 49.5202 -30
      vertex 153.019 68.1284 30
    endloop
  endfacet
  facet normal 0.757807 0.246226 -0.604236
    outer loop
      vertex 119.089 25.3132 -30
      vertex 111.224 49.5202 -30
      vertex 163.84 34.8252 30
    endloop
  endfacet
  facet normal 0.792441 0.0832889 -0.604236
    outer loop
      vertex 167.5 0 30
      vertex 119.089 25.3132 -30
      vertex 163.84 34.8252 30
    endloop
  endfacet
  facet normal 0.792441 0.0832889 -0.604236
    outer loop
      vertex 121.75 0 -30
      vertex 119.089 25.3132 -30
      vertex 167.5 0 30
    endloop
  endfacet
  facet normal 0.792441 -0.0832889 -0.604236
    outer loop
      vertex 163.84 -34.8252 30
      vertex 121.75 0 -30
      vertex 167.5 0 30
    endloop
  endfacet
  facet normal 0.792441 -0.0832889 -0.604236
    outer loop
      vertex 163.84 -34.8252 30
      vertex 119.089 -25.3132 -30
      vertex 121.75 0 -30
    endloop
  endfacet
  facet normal 0.757807 -0.246226 -0.604236
    outer loop
      vertex 153.019 -68.1284 30
      vertex 119.089 -25.3132 -30
      vertex 163.84 -34.8252 30
    endloop
  endfacet
  facet normal 0.757807 -0.246226 -0.604236
    outer loop
      vertex 153.019 -68.1284 30
      vertex 111.224 -49.5202 -30
      vertex 119.089 -25.3132 -30
    endloop
  endfacet
  facet normal 0.690054 -0.398403 -0.604236
    outer loop
      vertex 135.51 -98.454 30
      vertex 111.224 -49.5202 -30
      vertex 153.019 -68.1284 30
    endloop
  endfacet
  facet normal 0.690054 -0.398403 -0.604236
    outer loop
      vertex 135.51 -98.454 30
      vertex 98.4978 -71.5629 -30
      vertex 111.224 -49.5202 -30
    endloop
  endfacet
  facet normal 0.592142 -0.533167 -0.604236
    outer loop
      vertex 112.079 -124.477 30
      vertex 98.4978 -71.5629 -30
      vertex 135.51 -98.454 30
    endloop
  endfacet
  facet normal 0.592142 -0.533167 -0.604236
    outer loop
      vertex 112.079 -124.477 30
      vertex 81.4667 -90.4779 -30
      vertex 98.4978 -71.5629 -30
    endloop
  endfacet
  facet normal 0.468351 -0.644629 -0.604236
    outer loop
      vertex 83.75 -145.059 30
      vertex 81.4667 -90.4779 -30
      vertex 112.079 -124.477 30
    endloop
  endfacet
  facet normal 0.468351 -0.644629 -0.604236
    outer loop
      vertex 83.75 -145.059 30
      vertex 60.875 -105.439 -30
      vertex 81.4667 -90.4779 -30
    endloop
  endfacet
  facet normal 0.32409 -0.727918 -0.604236
    outer loop
      vertex 83.75 -145.059 30
      vertex 51.7603 -159.302 30
      vertex 60.875 -105.439 -30
    endloop
  endfacet
  facet normal 0.32409 -0.727918 -0.604236
    outer loop
      vertex 51.7603 -159.302 30
      vertex 37.6228 -115.791 -30
      vertex 60.875 -105.439 -30
    endloop
  endfacet
  facet normal 0.165665 -0.779393 -0.604236
    outer loop
      vertex 51.7603 -159.302 30
      vertex 17.5085 -166.582 30
      vertex 37.6228 -115.791 -30
    endloop
  endfacet
  facet normal 0.165665 -0.779393 -0.604236
    outer loop
      vertex 17.5085 -166.582 30
      vertex 12.7263 -121.083 -30
      vertex 37.6228 -115.791 -30
    endloop
  endfacet
  facet normal 0 -0.796805 -0.604236
    outer loop
      vertex 17.5085 -166.582 30
      vertex -17.5085 -166.582 30
      vertex -12.7263 -121.083 -30
    endloop
  endfacet
  facet normal 0 -0.796805 -0.604236
    outer loop
      vertex 12.7263 -121.083 -30
      vertex 17.5085 -166.582 30
      vertex -12.7263 -121.083 -30
    endloop
  endfacet
  facet normal -0.165665 -0.779393 -0.604236
    outer loop
      vertex -12.7263 -121.083 -30
      vertex -29.5 -137.506 -4.21685
      vertex -29.5 -117.518 -30
    endloop
  endfacet
  facet normal 0 0 1
    outer loop
      vertex -163.84 34.8252 30
      vertex -167.5 0 30
      vertex -163.84 -34.8252 30
    endloop
  endfacet
  facet normal 0 0 1
    outer loop
      vertex -135.51 -98.454 30
      vertex -163.84 34.8252 30
      vertex -153.019 -68.1284 30
    endloop
  endfacet
  facet normal 0 0 1
    outer loop
      vertex -153.019 -68.1284 30
      vertex -163.84 34.8252 30
      vertex -163.84 -34.8252 30
    endloop
  endfacet
  facet normal 0 0 1
    outer loop
      vertex -123.5 -111.793 30
      vertex -163.84 34.8252 30
      vertex -135.51 -98.454 30
    endloop
  endfacet
  facet normal 0 0 1
    outer loop
      vertex -123.5 111.793 30
      vertex -163.84 34.8252 30
      vertex -123.5 -111.793 30
    endloop
  endfacet
  facet normal 0 0 1
    outer loop
      vertex -135.51 98.454 30
      vertex -163.84 34.8252 30
      vertex -123.5 111.793 30
    endloop
  endfacet
  facet normal 0 0 1
    outer loop
      vertex -153.019 68.1284 30
      vertex -163.84 34.8252 30
      vertex -135.51 98.454 30
    endloop
  endfacet
  facet normal -0.792441 -0.0832889 -0.604236
    outer loop
      vertex -167.5 0 30
      vertex -123.5 -23.007 -24.5336
      vertex -163.84 -34.8252 30
    endloop
  endfacet
  facet normal -0.792441 -0.0832889 -0.604236
    outer loop
      vertex -163.84 -34.8252 30
      vertex -123.5 -23.007 -24.5336
      vertex -123.5 -26.2507 -24.0865
    endloop
  endfacet
  facet normal -0.792441 -0.0832889 -0.604236
    outer loop
      vertex -123.5 -23.007 -24.5336
      vertex -167.5 0 30
      vertex -123.5 0 -27.7049
    endloop
  endfacet
  facet normal -0.792441 0.0832889 -0.604236
    outer loop
      vertex -167.5 0 30
      vertex -163.84 34.8252 30
      vertex -123.5 0 -27.7049
    endloop
  endfacet
  facet normal -0.792441 0.0832889 -0.604236
    outer loop
      vertex -123.5 0 -27.7049
      vertex -163.84 34.8252 30
      vertex -123.5 1.44796 -27.5053
    endloop
  endfacet
  facet normal -0.792441 0.0832889 -0.604236
    outer loop
      vertex -123.5 1.44796 -27.5053
      vertex -163.84 34.8252 30
      vertex -123.5 26.2507 -24.0865
    endloop
  endfacet
  facet normal -0.757807 0.246226 -0.604236
    outer loop
      vertex -163.84 34.8252 30
      vertex -153.019 68.1284 30
      vertex -123.5 26.2507 -24.0865
    endloop
  endfacet
  facet normal -0.757807 0.246226 -0.604236
    outer loop
      vertex -123.5 26.2507 -24.0865
      vertex -153.019 68.1284 30
      vertex -123.5 30.8788 -22.2005
    endloop
  endfacet
  facet normal -0.757807 0.246226 -0.604236
    outer loop
      vertex -123.5 30.8788 -22.2005
      vertex -153.019 68.1284 30
      vertex -123.5 54.9857 -12.3769
    endloop
  endfacet
  facet normal -0.690054 0.398403 -0.604236
    outer loop
      vertex -153.019 68.1284 30
      vertex -135.51 98.454 30
      vertex -123.5 54.9857 -12.3769
    endloop
  endfacet
  facet normal -0.690054 0.398403 -0.604236
    outer loop
      vertex -123.5 54.9857 -12.3769
      vertex -135.51 98.454 30
      vertex -123.5 74.2546 0.327957
    endloop
  endfacet
  facet normal -0.690054 0.398403 -0.604236
    outer loop
      vertex -123.5 74.2546 0.327957
      vertex -135.51 98.454 30
      vertex -123.5 89.728 10.5304
    endloop
  endfacet
  facet normal -0.592142 0.533167 -0.604236
    outer loop
      vertex -123.5 89.728 10.5304
      vertex -135.51 98.454 30
      vertex -123.5 111.793 30
    endloop
  endfacet
  facet normal 1 0 0
    outer loop
      vertex -123.5 -46.0917 -16.0013
      vertex -123.5 -26.2507 -24.0865
      vertex -123.5 -96.6815 16.666
    endloop
  endfacet
  facet normal 1 0 0
    outer loop
      vertex -123.5 -96.6815 16.666
      vertex -123.5 -89.728 10.5304
      vertex -123.5 -69.9879 -2.48529
    endloop
  endfacet
  facet normal 1 0 0
    outer loop
      vertex -123.5 -54.9857 -12.3769
      vertex -123.5 -96.6815 16.666
      vertex -123.5 -69.9879 -2.48529
    endloop
  endfacet
  facet normal 1 0 0
    outer loop
      vertex -123.5 -54.9857 -12.3769
      vertex -123.5 -46.0917 -16.0013
      vertex -123.5 -96.6815 16.666
    endloop
  endfacet
  facet normal 1 0 0
    outer loop
      vertex -123.5 -23.007 -24.5336
      vertex -123.5 0 -27.7049
      vertex -123.5 -96.6815 16.666
    endloop
  endfacet
  facet normal 1 0 0
    outer loop
      vertex -123.5 -26.2507 -24.0865
      vertex -123.5 -23.007 -24.5336
      vertex -123.5 -96.6815 16.666
    endloop
  endfacet
  facet normal 1 0 0
    outer loop
      vertex -123.5 0 -27.7049
      vertex -123.5 1.44796 -27.5053
      vertex -123.5 -96.6815 16.666
    endloop
  endfacet
  facet normal 1 0 0
    outer loop
      vertex -123.5 1.44796 -27.5053
      vertex -123.5 26.2507 -24.0865
      vertex -123.5 -96.6815 16.666
    endloop
  endfacet
  facet normal 1 0 0
    outer loop
      vertex -123.5 26.2507 -24.0865
      vertex -123.5 30.8788 -22.2005
      vertex -123.5 -96.6815 16.666
    endloop
  endfacet
  facet normal 1 0 0
    outer loop
      vertex -123.5 30.8788 -22.2005
      vertex -123.5 54.9857 -12.3769
      vertex -123.5 -96.6815 16.666
    endloop
  endfacet
  facet normal 1 0 0
    outer loop
      vertex -123.5 54.9857 -12.3769
      vertex -123.5 74.2546 0.327957
      vertex -123.5 -96.6815 16.666
    endloop
  endfacet
  facet normal 1 0 0
    outer loop
      vertex -123.5 74.2546 0.327957
      vertex -123.5 89.728 10.5304
      vertex -123.5 -96.6815 16.666
    endloop
  endfacet
  facet normal 1 0 0
    outer loop
      vertex -123.5 89.728 10.5304
      vertex -123.5 111.793 30
      vertex -123.5 -96.6815 16.666
    endloop
  endfacet
  facet normal 1 0 0
    outer loop
      vertex -123.5 111.793 30
      vertex -123.5 -111.793 30
      vertex -123.5 -96.6815 16.666
    endloop
  endfacet
  facet normal -0.592142 -0.533167 -0.604236
    outer loop
      vertex -123.5 -111.793 30
      vertex -135.51 -98.454 30
      vertex -123.5 -96.6815 16.666
    endloop
  endfacet
  facet normal -0.592142 -0.533167 -0.604236
    outer loop
      vertex -123.5 -96.6815 16.666
      vertex -135.51 -98.454 30
      vertex -123.5 -89.728 10.5304
    endloop
  endfacet
  facet normal -0.690054 -0.398403 -0.604236
    outer loop
      vertex -153.019 -68.1284 30
      vertex -123.5 -69.9879 -2.48529
      vertex -135.51 -98.454 30
    endloop
  endfacet
  facet normal -0.690054 -0.398403 -0.604236
    outer loop
      vertex -135.51 -98.454 30
      vertex -123.5 -69.9879 -2.48529
      vertex -123.5 -89.728 10.5304
    endloop
  endfacet
  facet normal -0.690054 -0.398403 -0.604236
    outer loop
      vertex -123.5 -69.9879 -2.48529
      vertex -153.019 -68.1284 30
      vertex -123.5 -54.9857 -12.3769
    endloop
  endfacet
  facet normal -0.757807 -0.246226 -0.604236
    outer loop
      vertex -163.84 -34.8252 30
      vertex -123.5 -46.0917 -16.0013
      vertex -153.019 -68.1284 30
    endloop
  endfacet
  facet normal -0.757807 -0.246226 -0.604236
    outer loop
      vertex -153.019 -68.1284 30
      vertex -123.5 -46.0917 -16.0013
      vertex -123.5 -54.9857 -12.3769
    endloop
  endfacet
  facet normal -0.757807 -0.246226 -0.604236
    outer loop
      vertex -123.5 -46.0917 -16.0013
      vertex -163.84 -34.8252 30
      vertex -123.5 -26.2507 -24.0865
    endloop
  endfacet
  facet normal -1 0 0
    outer loop
      vertex -70.5 -167.5 -30
      vertex -70.5 -167.5 30
      vertex -70.5 167.5 -30
    endloop
  endfacet
  facet normal -1 0 0
    outer loop
      vertex -70.5 167.5 -30
      vertex -70.5 -167.5 30
      vertex -70.5 167.5 30
    endloop
  endfacet
  facet normal 0 -1 0
    outer loop
      vertex -70.5 -167.5 30
      vertex -70.5 -167.5 -30
      vertex -40.5 -167.5 -30
    endloop
  endfacet
  facet normal 0 -1 0
    outer loop
      vertex -40.5 -167.5 30
      vertex -70.5 -167.5 30
      vertex -40.5 -167.5 -30
    endloop
  endfacet
  facet normal 0 0 -1
    outer loop
      vertex -70.5 -167.5 -30
      vertex -70.5 167.5 -30
      vertex -40.5 -167.5 -30
    endloop
  endfacet
  facet normal 0 0 -1
    outer loop
      vertex -40.5 -167.5 -30
      vertex -70.5 167.5 -30
      vertex -40.5 167.5 -30
    endloop
  endfacet
  facet normal 0 1 0
    outer loop
      vertex -70.5 167.5 -30
      vertex -70.5 167.5 30
      vertex -40.5 167.5 -30
    endloop
  endfacet
  facet normal 0 1 0
    outer loop
      vertex -40.5 167.5 -30
      vertex -70.5 167.5 30
      vertex -40.5 167.5 30
    endloop
  endfacet
  facet normal 0 0 1
    outer loop
      vertex -70.5 167.5 30
      vertex -70.5 -167.5 30
      vertex -40.5 -167.5 30
    endloop
  endfacet
  facet normal 0 0 1
    outer loop
      vertex -40.5 167.5 30
      vertex -70.5 167.5 30
      vertex -40.5 -167.5 30
    endloop
  endfacet
  facet normal 1 0 0
    outer loop
      vertex -40.5 -167.5 30
      vertex -40.5 -167.5 -30
      vertex -40.5 167.5 -30
    endloop
  endfacet
  facet normal 1 0 0
    outer loop
      vertex -40.5 167.5 30
      vertex -40.5 -167.5 30
      vertex -40.5 167.5 -30
    endloop
  endfacet
  facet normal -1 0 0
    outer loop
      vertex -112.5 -167.5 0
      vertex -112.5 -167.5 30
      vertex -112.5 167.5 0
    endloop
  endfacet
  facet normal -1 0 0
    outer loop
      vertex -112.5 167.5 0
      vertex -112.5 -167.5 30
      vertex -112.5 167.5 30
    endloop
  endfacet
  facet normal 0 -1 0
    outer loop
      vertex -112.5 -167.5 30
      vertex -112.5 -167.5 0
      vertex -82.5 -167.5 0
    endloop
  endfacet
  facet normal 0 -1 0
    outer loop
      vertex -82.5 -167.5 30
      vertex -112.5 -167.5 30
      vertex -82.5 -167.5 0
    endloop
  endfacet
  facet normal 0 0 -1
    outer loop
      vertex -112.5 -167.5 0
      vertex -112.5 167.5 0
      vertex -82.5 -167.5 0
    endloop
  endfacet
  facet normal 0 0 -1
    outer loop
      vertex -82.5 -167.5 0
      vertex -112.5 167.5 0
      vertex -82.5 167.5 0
    endloop
  endfacet
  facet normal 0 1 0
    outer loop
      vertex -112.5 167.5 0
      vertex -112.5 167.5 30
      vertex -82.5 167.5 0
    endloop
  endfacet
  facet normal 0 1 0
    outer loop
      vertex -82.5 167.5 0
      vertex -112.5 167.5 30
      vertex -82.5 167.5 30
    endloop
  endfacet
  facet normal 0 0 1
    outer loop
      vertex -112.5 167.5 30
      vertex -112.5 -167.5 30
      vertex -82.5 -167.5 30
    endloop
  endfacet
  facet normal 0 0 1
    outer loop
      vertex -82.5 167.5 30
      vertex -112.5 167.5 30
      vertex -82.5 -167.5 30
    endloop
  endfacet
  facet normal 1 0 0
    outer loop
      vertex -82.5 -167.5 30
      vertex -82.5 -167.5 0
      vertex -82.5 167.5 0
    endloop
  endfacet
  facet normal 1 0 0
    outer loop
      vertex -82.5 167.5 30
      vertex -82.5 -167.5 30
      vertex -82.5 167.5 0
    endloop
  endfacet
endsolid OpenSCAD_Model
